<svg width="14.000000" height="14.000000" viewBox="0 0 14 14" fill="none" xmlns="http://www.w3.org/2000/svg" xmlns:xlink="http://www.w3.org/1999/xlink">
	<desc>
			Created with Pixso.
	</desc>
	<defs>
		<clipPath id="clip2_6916">
			<rect id="Icons-Youtube" rx="0.000000" width="13.000000" height="13.000000" transform="translate(0.500000 0.500000)" fill="white" fill-opacity="0"/>
		</clipPath>
	</defs>
	<rect id="Icons-Youtube" rx="0.000000" width="13.000000" height="13.000000" transform="translate(0.500000 0.500000)" fill="#FFFFFF" fill-opacity="0"/>
	<rect id="Icons-Youtube" rx="0.000000" width="13.000000" height="13.000000" transform="translate(0.500000 0.500000)" fill="#FFFFFF" fill-opacity="0"/>
	<rect id="Icons-Youtube" rx="0.000000" width="13.000000" height="13.000000" transform="translate(0.500000 0.500000)" fill="#FFFFFF" fill-opacity="0"/>
	<g clip-path="url(#clip2_6916)">
		<path id="Vector" d="M12.56 3.79C12.83 4.83 12.83 7 12.83 7C12.83 7 12.83 9.16 12.56 10.2C12.41 10.78 11.98 11.23 11.43 11.38C10.43 11.66 7 11.66 7 11.66C7 11.66 3.56 11.66 2.56 11.38C2.01 11.23 1.57 10.78 1.43 10.2C1.16 9.16 1.16 7 1.16 7C1.16 7 1.16 4.83 1.43 3.79C1.58 3.21 2.01 2.76 2.56 2.61C3.56 2.33 7 2.33 7 2.33C7 2.33 10.43 2.33 11.43 2.61C11.98 2.76 12.42 3.21 12.56 3.79ZM5.83 9.04L9.33 7L5.83 4.95L5.83 9.04Z" fill="#2B2B2B" fill-opacity="1.000000" fill-rule="nonzero"/>
	</g>
</svg>
